<svg width="35" height="36" viewBox="0 0 35 36" fill="none" xmlns="http://www.w3.org/2000/svg">
<path d="M17.5 35.3809C27.165 35.3809 35 27.5458 35 17.8809C35 8.21588 27.165 0.380859 17.5 0.380859C7.83502 0.380859 0 8.21588 0 17.8809C0 27.5458 7.83502 35.3809 17.5 35.3809Z" fill="#005AAA"/>
<path fill-rule="evenodd" clip-rule="evenodd" d="M12.7999 7.78125H22.1999C25.1999 7.78125 27.7 10.2812 27.7 13.2812V22.6311C27.7 25.6311 25.1999 28.1311 22.1999 28.1311H12.7999C9.79993 28.1311 7.29993 25.6311 7.29993 22.6311V13.2812C7.29993 10.2312 9.79993 7.78125 12.7999 7.78125ZM22.9499 11.3312C23.5999 11.3312 24.0999 11.8812 24.0999 12.4812C24.0999 13.1312 23.5499 13.6312 22.9499 13.6312C22.2499 13.6312 21.7999 13.0812 21.7999 12.4812C21.7999 11.8812 22.2999 11.3312 22.9499 11.3312ZM17.4999 12.3812C20.5499 12.3812 23.0999 14.9312 23.0999 17.9312C23.0999 20.9811 20.5499 23.4811 17.5499 23.4811H17.4999C14.4999 23.4811 11.9999 20.9811 11.9999 17.9312C11.9999 14.9312 14.4499 12.3812 17.4999 12.3812ZM17.4999 14.2812C19.5499 14.2812 21.1999 15.9312 21.1999 17.9312C21.1999 19.9811 19.5499 21.6311 17.5499 21.6311H17.4999C15.4999 21.6311 13.8499 19.9811 13.8499 17.9312C13.8499 15.9312 15.4999 14.2812 17.4999 14.2812ZM12.8499 9.53124H22.1499C24.2499 9.53124 25.9499 11.2312 25.9499 13.3312V22.5811C25.9499 24.6811 24.2499 26.3811 22.1499 26.3811H12.8499C10.7499 26.3811 9.04993 24.6811 9.04993 22.5811V13.3312C9.04993 11.2312 10.7499 9.53124 12.8499 9.53124Z" fill="#FFD66B"/>
</svg>
