<svg width="35" height="36" viewBox="0 0 35 36" fill="none" xmlns="http://www.w3.org/2000/svg">
<path d="M17.5 35.293C27.165 35.293 35 27.458 35 17.793C35 8.12799 27.165 0.292969 17.5 0.292969C7.83502 0.292969 0 8.12799 0 17.793C0 27.458 7.83502 35.293 17.5 35.293Z" fill="#005AAA"/>
<path fill-rule="evenodd" clip-rule="evenodd" d="M23.66 11.913C22.54 11.353 21.7 10.093 21.56 8.69303C21.56 8.41303 21.42 8.13303 21.42 7.85303H18.06V15.693V21.293C18.06 22.833 16.8 24.093 15.26 24.093C14.7 24.093 14.28 23.953 13.86 23.813C13.02 23.393 12.32 22.413 12.32 21.293C12.32 19.753 13.58 18.493 15.26 18.493C15.54 18.493 15.82 18.493 16.1 18.633V15.973V15.273C15.82 15.273 15.54 15.133 15.26 15.133C11.9 15.133 9.09998 17.933 9.09998 21.293C9.09998 23.393 10.22 25.213 11.76 26.333C12.74 27.033 14 27.453 15.26 27.453C18.62 27.453 21.42 24.653 21.42 21.293V14.293C22.68 15.413 24.36 15.973 26.04 15.833V13.313V12.473C25.2 12.753 24.36 12.473 23.66 11.913Z" fill="#FFD66B"/>
</svg>
