<svg width="35" height="36" viewBox="0 0 35 36" fill="none" xmlns="http://www.w3.org/2000/svg">
<path d="M17.5 35.293C27.165 35.293 35 27.458 35 17.793C35 8.12799 27.165 0.292969 17.5 0.292969C7.83502 0.292969 0 8.12799 0 17.793C0 27.458 7.83502 35.293 17.5 35.293Z" fill="#005AAA"/>
<path fill-rule="evenodd" clip-rule="evenodd" d="M11.48 10.9328C13.44 10.7928 15.68 10.6528 17.5 10.6528C19.32 10.6528 21.56 10.7928 23.52 10.9328C25.76 11.0728 27.02 11.4928 27.3 13.8728C27.44 14.9928 27.58 16.3928 27.58 17.7928C27.58 19.3328 27.44 20.7328 27.3 21.7128C27.02 24.0928 25.76 24.3728 23.52 24.6528C21.56 24.7928 19.32 24.9328 17.5 24.9328C15.68 24.9328 13.44 24.9328 11.48 24.6528C9.24 24.5128 7.98 24.0928 7.7 21.7128C7.56 20.7328 7.56 19.1928 7.56 17.7928C7.56 16.2528 7.7 14.8528 7.7 13.8728C7.98 11.4928 9.24 11.0728 11.48 10.9328Z" fill="#FFD66B"/>
<path fill-rule="evenodd" clip-rule="evenodd" d="M15.54 14.7129L20.72 17.7929L15.54 20.8729V14.7129Z" fill="#005AAA"/>
</svg>
